<?xml version="1.0" encoding="UTF-8"?><svg id="Layer_2" xmlns="http://www.w3.org/2000/svg" viewBox="0 0 263.3006 254.9063"><g id="Components"><path id="_97c07469-24f2-46a2-8ac4-e3319655441c_5" d="m223.7825,46.871c-1.6861,1.3312-.8238,3.954.9558,7.0587,2.2088,4.1053,4.1806,8.2432,2.0592,9.9182-1.9964,1.5757-6.4054-.0551-9.5803-4.0767-3.1742-4.0209-3.737-8.6893-1.7415-10.2646l1.9071,2.4157c-1.5394,1.2152-2.1896,3.8049.5535,7.28,2.7444,3.4758,5.4144,3.4442,6.9531,2.2291,1.5711-1.2401.9596-3.4979-.9619-7.0705-2.2463-3.9186-4.2527-8.1695-2.0528-9.9063,1.9961-1.5759,6.4057.0559,9.5803,4.0767,3.1742,4.0208,3.7379,8.689,1.7415,10.2657l-1.9074-2.4162c1.5391-1.2152,2.1896-3.806-.5541-7.2814-2.7431-3.475-5.4131-3.4434-6.9525-2.2283Zm4.5899,27.6252c.0026.0128.0051.025.0083.0376.1217.4683.3069.9499.5625,1.4433,1.4048,2.7123,4.1812,4.3865,7.2459,4.3707l.0051.9673c-3.4019.0178-6.4836-1.8304-8.0675-4.8241l-.0112.0058c-1.622-3.0651-1.3017-6.6476.5195-9.3368.0045-.007.0096-.0123.0141-.0191.1582-.233.328-.4604.509-.6786.024-.0299.0528-.0575.0778-.0871.1646-.193.3338-.3816.5144-.5612.0506-.0516.1079-.0966.1608-.147.1618-.1523.3248-.3049.4994-.4465.0833-.0671.1746-.1276.2604-.193.1525-.1156.3043-.2325.4657-.3394.1185-.078.246-.1462.3687-.2196.1284-.0769.2514-.1587.3847-.2292.0135-.0069.0263-.0114.0384-.0184.0141-.0075.0256-.0155.0391-.0227.0564-.0288.114-.0493.1707-.0767l.001.0019c4.3766-2.1499,9.7135-.4478,12.0091,3.8906,2.2623,4.2757.7434,9.5526-3.3593,12.0102l.0112.0216-.8546.4523-7.121-13.458c-2.0768,1.1755-3.6726,2.6732-4.3151,4.4348-.001.0022-.0026.0056-.0032.009-.066.1813-.1198.3661-.1646.5536-.0102.0436-.0173.0879-.0266.132-.0317.1496-.0577.3009-.0759.4543-.0102.0903-.0141.1821-.0192.2743-.0067.1118-.0135.2239-.0128.3373.0026.1441.0135.2904.0269.4375.0064.0665.0096.132.0176.1991.0288.2053.0682.4134.1208.6241Zm5.3077-7.9091l5.759,10.8837c3.6934-2.0911,5.8683-5.1996,3.8548-9.0047-2.0134-3.805-5.8077-3.7551-9.6139-1.8791Zm20.2265,25.0707l-.9193.3201c-1.4699-4.2189-6.0909-6.4578-10.3096-4.9879l-6.7907,2.3654c-.566.1973-1.0759.5266-1.4897.9598l-.1208.1275-1.3373-3.8383c.7373.2032,1.5195.1773,2.2418-.0743l13.1552-4.5831c.6963-.2428,1.3139-.6709,1.7863-1.2381h.001l1.3369,3.8377c-.7226-.151-1.4728-.1035-2.1701.1397l-2.787.9712c3.2953.4316,6.2376,2.6539,7.4032,6.0004Zm-14.5658,12.191c-.0013.0127-.0026.025-.0032.0383-.0154.4835.0256.9981.132,1.5435.5804,2.9985,2.77,5.3896,5.7139,6.2406l-.2681.9295c-3.2684-.9449-5.7014-3.5887-6.3747-6.9083l-.0122.0024c-.6893-3.3987.631-6.7443,3.1383-8.8086.0058-.0054.0125-.009.0189-.0143.2175-.1789.4443-.349.6794-.5072.032-.0219.0673-.04.0996-.0612.212-.1389.4276-.2718.6518-.393.0634-.0351.131-.062.196-.0956.1979-.1003.3972-.2005.6051-.287.099-.0408.2034-.0733.3043-.1116.1787-.0676.3578-.1369.5426-.1938.1361-.0412.2771-.0708.4161-.106.1448-.0378.2857-.0814.4337-.1113.0147-.003.0282-.0035.0416-.007.016-.003.0295-.0075.0442-.0106.0621-.0119.123-.0152.1855-.0255l.0003.0022c4.8058-.8246,9.4438,2.3166,10.4188,7.1271.9615,4.7405-1.9872,9.3727-6.6175,10.57l.0048.0239-.9478.192-3.0256-14.9216c-2.3241.5408-4.2786,1.5258-5.3923,3.0339-.0019.0019-.0042.0045-.0061.0077-.114.1552-.2184.3173-.3142.4843-.0221.0389-.0416.0794-.0628.119-.0727.1347-.1403.2729-.2015.4146-.0352.0836-.0653.1706-.0961.2577-.0378.1049-.0762.2111-.1076.3198-.0381.139-.0692.2823-.0974.4274-.0128.0655-.0285.1292-.0397.1959-.0304.205-.0516.4156-.0602.6328Zm7.3266-6.0856l2.4471,12.0674c4.1335-.9614,7.0986-3.3283,6.2433-7.5471-.8555-4.219-4.5092-5.2438-8.6905-4.5203Zm10.1094,22.0677l-.3728.005c1.6986,1.7777,2.6928,4.2368,2.4936,6.9358-.3491,4.7251-4.4006,8.3274-9.1382,8.3879l-8.858.1134-.0372-2.9003,10.7526-.1377c3.5522-.0455,6.4929-2.9732,6.3298-6.5214-.1083-2.3586-1.23-4.4482-2.9317-5.8593l-12.2135.1563c-.7377.0093-1.4599.2199-2.0877.6087l-.0519-4.0643c.6374.3727,1.3642.5645,2.1025.5551l13.9755-.1789c.7373-.0094,1.4599-.2199,2.0874-.6087l.0522,4.0645c-.6374-.3727-1.3645-.5647-2.1025-.556Zm-14.5898,19.1943l13.8525,1.6345c.7335.0868,1.4766-.028,2.1499-.332l-.4766,4.0361-.0003.0003c-.5836-.4526-1.2796-.7364-2.0121-.8229l-13.8531-1.6348c-.7325-.0865-1.475.0288-2.1483.3318h-.0006l.4763-4.0363c.5839.4519,1.2799.737,2.0125.8232Zm18.7416,5.8095c-1.164-.1374-1.9971-1.1922-1.8597-2.3568.1374-1.1653,1.1934-1.9963,2.3571-1.8589,1.1637.1372,1.9971,1.192,1.8597,2.3573-.1374,1.1643-1.1922,1.9958-2.3571,1.8584Zm-22.6903,10.3269l-.9459-.1983c.835-3.9794,4.9509-7.4842,8.9304-6.6488l9.5895,2.0128.5548-2.6438.9459.1986-.5548,2.6438,4.6716.9801-.5954,2.8392-4.6723-.9804-1.261,6.0092-.9455-.1986,1.2607-6.0092-9.5892-2.0125c-3.4573-.7258-6.6623.5506-7.3887,4.008Zm10.1853,22.7767l-1.0083,2.7203c-9.5726-3.549-11.3941-10.8025-12.4937-16.4966-.7498-3.8811-2.0141-5.1335-4.8644-6.1899l1.0083-2.72c3.039,1.1262,3.8769,4.0691,4.5826,7.5893,2.4244-2.5586,6.227-3.5823,9.735-2.2822l6.3715,2.3622c.6919.2562,1.442.3197,2.1675.1826l-1.4132,3.8116c-.4609-.5772-1.0701-1.0176-1.7623-1.2745l-6.3724-2.3622c-3.3193-1.2306-6.515-1.2694-8.4733.8485,1.1134,5.6716,3.54,10.4803,12.5229,13.8108Zm-26.6367,26.4641c-3.843-2.8017-4.9442-8.6395-1.9974-12.6811,2.9468-4.0416,8.8416-4.7789,12.6846-1.9772,3.8427,2.8017,4.9439,8.6389,1.9974,12.6808-2.9468,4.0413-8.8416,4.7792-12.6846,1.9776Zm1.7098-2.3449c3.4327,2.5028,7.5989,3.4359,10.2311-.1746,2.6319-3.6101.4696-7.2917-2.9628-9.7942-3.434-2.5038-7.6001-3.4359-10.2324.1739-2.6322,3.6111-.4689,7.292,2.9641,9.7949Zm-8.7158,21.9869l-2.9618,2.7841c-.1557-.7216-.5051-1.3872-1.0109-1.925l-4.7969-5.1034c-3.5048-3.7286-3.237-9.6632.6566-13.0549,3.7037-3.2264,9.3487-2.7857,12.7128.7934l4.6441,4.9407c.5058.5378,1.1483.9266,1.8584,1.1278l.0003.0006-2.9609,2.7838c-.1557-.7216-.5054-1.3872-1.0109-1.9253l-4.7969-5.1024c-3.0413-3.2357-6.7427-4.7209-9.9838-1.7348-2.5519,2.351-2.5733,6.3875-.196,8.916l5.9877,6.3705c.5061.5381,1.1483.9286,1.8581,1.1291Zm-25.0265-2.9577l-.5493-.7953c3.3456-2.3103,8.743-2.0176,11.0537,1.3277l5.5675,8.0627,2.2229-1.5346.549.7953-2.2226,1.5349,2.7126,3.9276-2.3869,1.6483-2.7126-3.9276-5.0521,3.4887-.5493-.795,5.0525-3.4894-5.5681-8.0627c-2.0067-2.9064-5.2097-4.1876-8.1171-2.1806Zm-7.2411,26.8571l-8.6431-17.1471c-.3318-.6585-.8382-1.2149-1.4625-1.6086l3.6297-1.8299c-.0551.7367.091,1.4734.4234,2.1332l.1544.3062c.7678-2.0759,2.2812-3.8814,4.4096-4.9544,4.7722-2.4055,10.6837-.1832,12.5966,4.9717,1.4519,3.9093-.025,8.399-3.5099,10.6904-2.3536,1.5483-5.0903,1.8411-7.5284,1.1323l2.5205,5.0006c.3322.6589.8382,1.2155,1.4628,1.6089l-3.6297,1.8296c.0551-.7361-.0916-1.474-.4234-2.1329Zm-.5554-7.5467c2.1146.8911,4.5906.8904,6.7955-.221,3.9897-2.0115,3.8718-6.0217,1.861-10.0114-2.0109-3.9891-5.1652-6.4688-9.1543-4.458-2.2056,1.1115-3.679,3.1005-4.22,5.3311l4.7177,9.3593Zm-26.4484,3.2399c-1.3142-4.5704,1.3994-9.8548,6.2065-11.2365,4.8071-1.3824,9.9127,1.6537,11.2266,6.2241,1.3142,4.5701-1.3994,9.8541-6.2062,11.2362-4.8065,1.3821-9.9131-1.6537-11.2269-6.2238Zm2.7886-.8017c1.1739,4.0829,3.8901,7.3763,8.1841,6.1415,4.2937-1.2344,4.8462-5.4679,3.672-9.5502-1.1742-4.0839-3.8904-7.3772-8.1841-6.1428-4.294,1.2344-4.8459,5.4682-3.672,9.5514Zm-24.1114,3.2126c-.4676-4.7328,3.1547-9.4409,8.1322-9.9329,4.9778-.4923,9.4521,3.4154,9.9201,8.1482.4676,4.7322-3.155,9.44-8.1325,9.932-4.9769.4923-9.4518-3.4151-9.9198-8.1472Zm2.8872-.2857c.4183,4.2274,2.4958,7.957,6.9422,7.5175,4.4458-.4395,5.7533-4.5038,5.335-8.7311-.418-4.229-2.4958-7.9586-6.9419-7.5188-4.4461.4398-5.753,4.5047-5.3353,8.7324Zm-18.6333,8.5185l.05-.9724c4.4618.23,8.2779-3.2056,8.5082-7.6671l.3699-7.1812c.0307-.5983-.0817-1.1954-.3273-1.7418l-.0721-.1602,4.0592.2095c-.4664.606-.7373,1.3401-.7764,2.1044l-.7172,13.912c-.0381.7367.1259,1.4702.4728,2.1217l-.0003.0006-4.0582-.2092c.4126-.6124.6509-1.3248.6893-2.0624l.1512-2.9474c-1.6419,2.8888-4.8103,4.7757-8.349,4.5935Zm-4.7962-5.6428c.4164-2.1076-1.9436-3.5403-5.3135-4.7424-4.3468-1.6848-8.5345-3.5477-8.0108-6.1998.4926-2.4945,4.9035-4.1207,9.9297-3.1281,5.0256.9926,8.4874,4.1745,7.9948,6.6687l-3.0195-.5964c.3802-1.9237-.8088-4.3145-5.1521-5.1723-4.3443-.8584-6.3529.901-6.7328,2.8248-.3879,1.9638,1.5439,3.2821,5.326,4.7482,4.2536,1.5179,8.5418,3.4442,7.9986,6.194-.4929,2.4948-4.9045,4.1207-9.9294,3.1278-5.0262-.9923-8.488-4.1729-7.996-6.669l3.0205.5967c-.3805,1.9237.8094,4.3154,5.153,5.1729,4.3433.8581,6.3519-.901,6.7315-2.8251Zm-76.2584-42.7361c1.7149-1.2937.9103-3.9346-.8008-7.0774-2.1172-4.1524-3.9977-8.3324-1.8398-9.9601,2.0301-1.5314,6.4019.196,9.4871,4.286,3.0848,4.089,3.5448,8.7683,1.5157,10.2993l-1.8536-2.4567c1.5656-1.1813,2.2722-3.7556-.3933-7.2898-2.6668-3.5352-5.3366-3.5621-6.9022-2.3815-1.5977,1.2053-1.0362,3.4759.8065,7.0896,2.1592,3.9666,4.0717,8.26,1.8344,9.948-2.0301,1.5317-6.4029-.1967-9.4874-4.2857-3.0848-4.0896-3.5458-8.768-1.5154-10.3009l1.8536,2.458c-1.5656,1.1806-2.2722,3.7562.394,7.2907,2.6662,3.5339,5.3356,3.5611,6.9012,2.3805Zm-3.966-27.6937c-.0019-.0131-.0042-.025-.007-.0381-.1111-.4702-.2857-.9564-.5307-1.4555-1.3437-2.7424-4.0823-4.4778-7.1463-4.53l.016-.9673c3.4016.058,6.4413,1.9737,7.9582,5.0022l.0112-.0058c1.5538,3.1005,1.1537,6.6751-.7271,9.3227-.0042.007-.0093.0122-.0144.0192-.1634.229-.3376.4529-.5234.6669-.025.0291-.0538.0561-.0801.0849-.1685.1893-.3421.3744-.5266.55-.0519.05-.1095.0942-.164.1435-.1653.1483-.3312.2972-.509.435-.0849.0653-.1771.1243-.2642.1871-.155.1124-.3097.2261-.4734.3293-.1204.0753-.2492.1406-.3741.2111-.13.0743-.2543.1534-.3895.2207-.0135.007-.0263.0109-.0384.0176-.0141.0074-.0263.0151-.0397.0215-.057.0279-.115.0474-.1723.073l-.0013-.0019c-4.4227,2.0519-9.7202.2322-11.9191-4.1563-2.1665-4.3247-.5311-9.5662,3.6252-11.9319l-.0109-.0218.8648-.4334,6.8199,13.6126c2.1021-1.1294,3.7312-2.5913,4.4119-4.3379.0013-.0022.0032-.0054.0038-.0086.0698-.18.1281-.3639.1768-.5496.0112-.0436.0199-.0878.0298-.1313.0346-.1493.0644-.2998.0858-.4529.0125-.09.0183-.1819.0253-.2735.0093-.1115.0186-.2239.0205-.3373.0006-.1438-.007-.2905-.0173-.4382-.0051-.0663-.0064-.1323-.0135-.1992-.0237-.206-.0589-.4148-.107-.6265Zm-15.051,5.6969c1.9282,3.8484,5.7225,3.883,9.5694,2.0919l-5.5156-11.0088c-3.7386,2.0089-5.982,5.0682-4.0538,8.9166v.0003Zm-10.0979-23.4177l.9263-.2998c1.376,4.2504,5.9464,6.5909,10.1968,5.2145l6.8413-2.2146c.5695-.1848,1.0868-.5026,1.5099-.9266l.1243-.1249,1.2517,3.867c-.7325-.2194-1.515-.2108-2.2428.025l-13.2529,4.2908c-.7021.2274-1.3293.6419-1.8139,1.1983l-.0006.0003-1.2517-3.8664c.7191.1672,1.4699.1358,2.1726-.0913l2.8078-.9097c-3.2847-.5042-6.1777-2.7911-7.269-6.1626Zm14.8307-11.8679c.0013-.0128.0032-.025.0038-.0384.0263-.483-.0042-.9981-.098-1.5458-.5144-3.0108-2.6508-5.4496-5.5755-6.3652l.2892-.9231c3.2466,1.0163,5.621,3.7131,6.2209,7.0468l.0122-.0026c.614,3.4135-.7793,6.7296-3.3315,8.7382-.0064.0054-.0125.0086-.0195.0138-.221.1742-.4516.3389-.6906.492-.032.0215-.0673.0388-.1006.0589-.2152.1345-.4337.2626-.6605.3786-.0641.0336-.132.0596-.1979.0913-.2002.0961-.4017.1919-.6111.2739-.0999.0384-.205.0685-.3069.1047-.1803.0637-.3607.1294-.5468.1819-.1368.0381-.279.0644-.4183.0971-.1457.0343-.2876.075-.4359.1015-.0147.0026-.0282.0029-.0423.0061-.0154.0029-.0295.007-.0442.0096-.0621.0106-.1233.0122-.1858.0218l-.0006-.0029c-4.8228.7191-9.3903-2.5237-10.2596-7.3548-.8568-4.7607,2.1938-9.3267,6.849-10.4222l-.0045-.0237.9519-.1717,2.6966,14.9855c2.3353-.4894,4.311-1.4311,5.458-2.9148.0019-.0016.0042-.0045.0058-.007.1179-.1531.2258-.3126.3251-.4779.0231-.0378.0436-.0785.0653-.1172.0756-.1332.1467-.2697.2104-.41.0372-.0833.0689-.1694.1019-.2556.04-.1041.081-.2095.1143-.3171.042-.1384.0756-.2812.107-.4254.0144-.0653.0314-.1288.0442-.1951.0346-.2044.0609-.4142.0743-.6313Zm-7.4595,5.923l-2.1803-12.119c-4.1543.8706-7.1709,3.1716-6.4083,7.4083.762,4.237,4.3923,5.342,8.5886,4.7107Zm-9.6209-22.2926l.3728.0034c-1.6598-1.8144-2.5993-4.2949-2.3408-6.989.4529-4.7158,4.5823-8.2283,9.3199-8.1847l8.8583.0812-.0266,2.9002-10.7526-.0985c-3.5525-.0327-6.5566,2.83-6.4714,6.3808.0564,2.3603,1.1316,4.474,2.802,5.9221l12.2138.1123c.7373.0066,1.4644-.188,2.1005-.5631l-.0372,4.0646c-.6297-.3866-1.3514-.5945-2.0897-.6012l-13.9758-.1283c-.738-.0066-1.4644.188-2.1002.5631l.0372-4.0646c.6291.3864,1.351.5945,2.0897.6018Zm-3.6037-25.0828c1.1605.1627,1.9708,1.2357,1.8078,2.3967-.1627,1.1617-1.2367,1.97-2.3968,1.8071-1.1605-.1626-1.9705-1.2354-1.8078-2.397.1627-1.1611,1.2351-1.9695,2.3968-1.8068Zm18.6093,6.216l-13.8121-1.9358c-.7316-.1025-1.4772-.0038-2.1569.2852l.5641-4.0249.001.0003c.5733.4649,1.2626.7639,1.9936.8663l13.8134,1.9358c.7306.1023,1.4753.0035,2.155-.2849h.0006l-.5644,4.0248c-.5733-.4646-1.2633-.7644-1.9942-.8667Zm4.3029-16.0493l.942.2194c-.9225,3.9597-5.1146,7.3729-9.0745,6.4499l-9.5431-2.2231-.6124,2.6303-.941-.2191.6124-2.6308-4.6489-1.0829.6585-2.8251,4.6489,1.0829,1.3927-5.9799.9417.2194-1.3933,5.9801,9.5431,2.2231c3.4401.8016,6.6719-.4039,7.4739-3.8443Zm-9.6828-22.9877l1.0679-2.6971c9.4912,3.7581,11.1523,11.0496,12.1267,16.7659.6637,3.8965,1.9,5.1761,4.7257,6.2951l-1.0679,2.697c-3.0128-1.193-3.785-4.1534-4.4138-7.6874-2.4791,2.504-6.3032,3.4437-9.7814,2.0666l-6.3177-2.5017c-.6861-.2711-1.4343-.3512-2.1627-.2301l1.4965-3.7793c.4481.5871,1.0474,1.041,1.7338,1.3128l6.3186,2.5017c3.2911,1.3032,6.4849,1.4124,8.4887-.6613-.9878-5.6943-3.3081-10.5549-12.2144-14.0821Zm27.2161-25.8685c3.7796,2.8861,4.7507,8.7467,1.7149,12.7218-3.0352,3.9753-8.9448,4.5815-12.7244,1.6952-3.7796-2.8862-4.7507-8.7465-1.7152-12.7216,3.0355-3.9748,8.9451-4.5816,12.7247-1.6954Zm-1.761,2.3059c-3.3766-2.5783-7.5207-3.6034-10.2324-.0522-2.7114,3.5507-.6316,7.2792,2.7447,9.8575,3.3773,2.5788,7.522,3.6037,10.2334.0528,2.7114-3.551.6307-7.2795-2.7456-9.8581Zm9.1901-21.7888l3.0217-2.7191c.14.7247.4747,1.398.9692,1.947l4.6847,5.206c3.4224,3.8039,3.0256,9.7314-.9404,13.0378-3.7728,3.1454-9.4073,2.5813-12.693-1.0697l-4.5355-5.0406c-.4936-.5482-1.1281-.9515-1.8334-1.168v-.0005l3.0208-2.7186c.14.7248.4747,1.398.9689,1.947l4.6841,5.2056c2.9705,3.3012,6.6389,4.8662,9.9448,1.9511,2.6021-2.295,2.7104-6.3301.3895-8.9097l-5.8481-6.4988c-.4939-.5493-1.1281-.9532-1.8334-1.1696Zm24.957,3.4985l.532.8073c-3.3952,2.2368-8.7849,1.8264-11.0216-1.569l-5.3907-8.1817-2.2553,1.486-.5317-.8072,2.2553-1.4857-2.6258-3.986,2.4221-1.5961,2.6258,3.986,5.1271-3.3778.532.8068-5.1274,3.3779,5.3907,8.1818c1.9433,2.9497,5.1172,4.3004,8.0675,2.3574Zm7.8279-26.6896l8.2641,17.3346c.3174.6661.8113,1.2335,1.4269,1.6409l-3.6694,1.7493c.0717-.7351-.0583-1.4753-.376-2.142l-.148-.3102c-.8129,2.0592-2.3664,3.831-4.5182,4.8569-4.8244,2.3001-10.6859-.0516-12.4851-5.2482-1.3655-3.9405.2101-8.3972,3.7447-10.6115,2.3875-1.4965,5.13-1.7287,7.5521-.9665l-2.41-5.0552c-.3174-.6659-.811-1.234-1.4273-1.6408l3.6694-1.7495c-.0711.7346.0596,1.4756.3767,2.142Zm.3892,7.5572c-2.0945-.937-4.5701-.9907-6.7994.0722-4.0329,1.9226-4.0041,5.9351-2.081,9.9683,1.9225,4.0331,5.0217,6.5821,9.0546,4.6591,2.2296-1.0631,3.7466-3.0195,4.3369-5.2374l-4.5111-9.4622Zm26.5214-2.6542c1.213,4.5978-1.6162,9.8205-6.4522,11.0959-4.8359,1.2758-9.873-1.8719-11.0857-6.4703-1.2127-4.5975,1.6162-9.8202,6.4522-11.0956,4.8353-1.2753,9.8733,1.8723,11.0857,6.47Zm-2.8052.7397c-1.0833-4.1069-3.7258-7.4594-8.0457-6.3202-4.3193,1.1393-4.965,5.3591-3.8818,9.4664,1.0839,4.1084,3.7264,7.461,8.046,6.3212,4.3199-1.1392,4.965-5.3598,3.8814-9.4674Zm24.1701-2.6793c.3642,4.7413-3.3606,9.3682-8.3471,9.7508-4.9865.3829-9.3733-3.6213-9.7372-8.3625-.3639-4.741,3.3606-9.3677,8.3471-9.7507,4.9858-.3828,9.3737,3.6215,9.7372,8.3623Zm-2.8923.2221c-.3251-4.2354-2.3203-8.0092-6.7744-7.6673-4.4541.3418-5.85,4.3761-5.5249,8.6113.3251,4.2363,2.32,8.01,6.7744,7.6684,4.4545-.3421,5.85-4.3769,5.5249-8.6125ZM147.2813.8783l-.0711.9712c-4.4561-.3275-8.3471,3.0238-8.6748,7.48l-.5269,7.1721c-.0442.5977.0551,1.1965.2889,1.7482l.0685.1618-4.0541-.2979c.4795-.5958.7665-1.324.8229-2.0869l1.0211-13.8946c.0538-.7357-.0935-1.4724-.4266-2.1316l.0006-.0005,4.0531.2979c-.426.603-.68,1.3105-.7341,2.0469l-.2165,2.9436c1.7059-2.8523,4.9147-4.6699,8.4489-4.4101Zm4.6726,5.7486c-.4622,2.0977,1.8654,3.5819,5.2088,4.8579,4.3087,1.7793,8.4547,3.7331,7.873,6.3731-.5474,2.4835-4.9926,4.0126-9.996,2.91-5.0022-1.1023-8.3935-4.3592-7.8461-6.8417l3.0054.6622c-.4222,1.9151.714,4.331,5.0374,5.2839,4.3247.9531,6.3708-.7618,6.793-2.6769.4305-1.9543-1.4721-3.315-5.2209-4.8632-4.2193-1.6108-8.4637-3.6305-7.8609-6.3676.5474-2.4835,4.9935-4.0124,9.9954-2.91,5.0031,1.1023,8.3945,4.3582,7.8474,6.8425l-3.0057-.6622c.4218-1.9151-.7149-4.3323-5.0387-5.285-4.3234-.9529-6.3699.762-6.792,2.6771Zm12.0723,171.914c-2.2766-7.4118-6.1832-13.9336-10.2475-20.3819-2.3819-3.7791-3.0749-7.6794-2.3447-12.0014.6977-4.1288,1.3398-8.2722,1.8248-12.4303.6312-5.4112-1.035-10.3568-3.4559-15.0986-1.0885-2.132-2.2635-4.2222-3.2868-6.3846-2.208-4.6662-3.3811-9.4989-3.1424-14.7685.1608-3.5495-.3962-7.1613-.9308-10.7001-.2774-1.836-1.2035-3.5739-2.3105-5.4117-2.7058,4.6765-6.2187,8.8726-7.0202,14.2134-1.6274,10.8449-2.5387,21.7429.5735,32.5241,1.7271,5.9831,4.6368,11.3161,8.9288,15.877,3.0011,3.1892,5.1706,6.8062,6.7186,10.9926,1.3847,3.7449,3.7956,7.1077,5.7256,10.6545,1.4004,2.5734,2.7548,5.1717,3.7768,8.0069-5.4248-3.779-10.1063-8.2237-14.3174-13.175-6.0417-7.1036-11.7378-14.5169-14.3794-23.5815-1.7461-5.9915-2.5334-12.2675-3.6376-18.4363-.2045-1.1426-.1786-2.5106.2635-3.5529,1.9917-4.6959,1.3538-9.755,2.2318-14.5944.1869-1.0301.0868-2.1434.4278-3.1094,3.2571-9.2275.2618-17.4474-4.3473-25.2186-2.4956-4.2078-5.6491-8.0441-8.6957-11.8979-1.3453-1.7018-3.2716-2.6064-6.1248-1.2595.2738,1.259.2541,2.7883.9106,3.9282,4.9308,8.563,4.4412,17.5491,2.0652,26.5956-2.707,10.307-.422,19.195,6.7153,27.019,2.8412,3.1145,4.7014,6.5996,5.1885,11.0757,1.2206,11.2164,6.6812,20.7148,13.572,29.3458,4.0936,5.1274,8.784,9.7784,13.2076,14.6423.4412.4852.8924.9612,1.3389,1.4415-.1696.2346-.3392.4693-.5088.704-5.6932-3.4336-11.4543-6.7622-17.036-10.3684-1.5657-1.0115-2.8033-2.7105-3.845-4.3185-2.8447-4.391-5.4468-8.9383-8.2546-13.354-2.5323-3.9823-6.0087-7.1213-9.975-9.5497-5.9065-3.6165-10.3997-8.4528-13.9606-14.3175-1.3152-2.166-2.9656-4.1365-4.5478-6.1291-.8885-1.119-.9663-1.0572-3.1332-1.2352,0,8.3449-.1404,16.7082.0446,25.0643.1468,6.6278,3.8014,11.5069,8.7701,15.4827,5.4996,4.4006,12.2275,6.2152,18.7252,8.3613,4.3721,1.444,9.1512,1.6961,13.468,3.2563,4.4483,1.6078,8.6094,4.0582,12.7963,6.3243,2.8865,1.5623,5.5735,3.4882,8.4023,5.1631,4.2746,2.531,8.0793,5.4566,11.2925,9.4032" style="fill:#fff;"/></g></svg>