<?xml version="1.0" encoding="UTF-8"?>
<!DOCTYPE svg PUBLIC "-//W3C//DTD SVG 1.1//EN" "http://www.w3.org/Graphics/SVG/1.1/DTD/svg11.dtd">
<!-- Creator: CorelDRAW 2020 (64-Bit Evaluation Version) -->
<svg xmlns="http://www.w3.org/2000/svg" xml:space="preserve" width="8.5in" height="11in" version="1.0" style="shape-rendering:geometricPrecision; text-rendering:geometricPrecision; image-rendering:optimizeQuality; fill-rule:evenodd; clip-rule:evenodd"
viewBox="0 0 8500 11000"
 xmlns:xlink="http://www.w3.org/1999/xlink"
 xmlns:xodm="http://www.corel.com/coreldraw/odm/2003">
 <defs>
  <style type="text/css">
   <![CDATA[
    .fil0 {fill:#3A4D2C;fill-rule:nonzero}
   ]]>
  </style>
 </defs>
 <g id="Layer_x0020_1">
  <metadata id="CorelCorpID_0Corel-Layer"/>
  <g>
   <path id="_97c07469-24f2-46a2-8ac4-e3319655441c_13" class="fil0" d="M5234.41 6455.49c-63.26,-205.93 -171.8,-387.14 -284.72,-566.3 -66.18,-105 -85.43,-213.37 -65.15,-333.45 19.38,-114.72 37.22,-229.84 50.7,-345.37 17.54,-150.35 -28.76,-287.76 -96.02,-419.51 -30.24,-59.24 -62.89,-117.31 -91.32,-177.39 -61.35,-129.65 -93.94,-263.92 -87.31,-410.33 4.47,-98.62 -11.01,-198.97 -25.86,-297.3 -7.71,-51.02 -33.44,-99.3 -64.2,-150.37 -75.18,129.94 -172.79,246.52 -195.06,394.91 -45.22,301.32 -70.54,604.11 15.94,903.67 47.99,166.24 128.83,314.41 248.08,441.13 83.38,88.61 143.66,189.11 186.67,305.43 38.47,104.05 105.46,197.48 159.08,296.03 38.91,71.5 76.54,143.7 104.94,222.47 -150.72,-105 -280.8,-228.49 -397.8,-366.06 -167.87,-197.37 -326.13,-403.35 -399.53,-655.2 -48.52,-166.47 -70.39,-340.85 -101.07,-512.24 -5.68,-31.75 -4.96,-69.76 7.32,-98.72 55.33,-130.47 37.61,-271.04 62.01,-405.5 5.19,-28.62 2.41,-59.55 11.89,-86.39 90.5,-256.38 7.28,-484.76 -120.79,-700.69 -69.34,-116.91 -156.96,-223.5 -241.61,-330.58 -37.38,-47.28 -90.9,-72.42 -170.18,-35 7.61,34.98 7.06,77.47 25.3,109.14 137,237.92 123.4,487.59 57.38,738.95 -75.21,286.37 -11.72,533.32 186.58,750.71 78.94,86.54 130.63,183.37 144.16,307.73 33.91,311.64 185.63,575.55 377.09,815.36 113.74,142.46 244.06,271.69 366.96,406.83 12.26,13.48 24.8,26.71 37.2,40.06 -4.72,6.52 -9.43,13.04 -14.14,19.56 -158.19,-95.4 -318.25,-187.88 -473.34,-288.08 -43.5,-28.1 -77.89,-75.31 -106.83,-119.99 -79.04,-122 -151.33,-248.35 -229.35,-371.04 -70.36,-110.65 -166.95,-197.86 -277.15,-265.33 -164.11,-100.48 -288.95,-234.86 -387.89,-397.81 -36.54,-60.18 -82.4,-114.93 -126.36,-170.29 -24.69,-31.09 -26.85,-29.37 -87.06,-34.32 0,231.86 -3.9,464.23 1.24,696.4 4.08,184.15 105.62,319.72 243.67,430.18 152.8,122.27 339.74,172.69 520.27,232.31 121.48,40.12 254.26,47.13 374.2,90.48 123.59,44.67 239.21,112.75 355.54,175.72 80.2,43.41 154.85,96.92 233.45,143.46 118.77,70.32 224.48,151.61 313.76,261.26l-40.75 -244.53zm0 0l0 0 0 0z"/>
  </g>
 </g>
</svg>
