<?xml version="1.0" encoding="UTF-8"?>
<!DOCTYPE svg PUBLIC "-//W3C//DTD SVG 1.1//EN" "http://www.w3.org/Graphics/SVG/1.1/DTD/svg11.dtd">
<!-- Creator: CorelDRAW 2020 (64-Bit Evaluation Version) -->
<svg xmlns="http://www.w3.org/2000/svg" xml:space="preserve" width="8.5in" height="11in" version="1.1" style="shape-rendering:geometricPrecision; text-rendering:geometricPrecision; image-rendering:optimizeQuality; fill-rule:evenodd; clip-rule:evenodd"
viewBox="0 0 8500 11000"
 xmlns:xlink="http://www.w3.org/1999/xlink"
 xmlns:xodm="http://www.corel.com/coreldraw/odm/2003">
 <defs>
  <style type="text/css">
   <![CDATA[
    .fil0 {fill:#3A4D2C;fill-rule:nonzero}
   ]]>
  </style>
 </defs>
 <g id="Layer_x0020_1">
  <metadata id="CorelCorpID_0Corel-Layer"/>
  <path id="_97c07469-24f2-46a2-8ac4-e3319655441c_13" class="fil0" d="M6970.24 2451.98c-46.85,36.99 -22.89,109.86 26.56,196.12 61.37,114.06 116.15,229.04 57.21,275.57 -55.47,43.78 -177.97,-1.53 -266.19,-113.27 -88.19,-111.72 -103.83,-241.43 -48.39,-285.19l52.99 67.12c-42.77,33.76 -60.83,105.72 15.38,202.27 76.25,96.57 150.44,95.7 193.19,61.94 43.65,-34.46 26.66,-97.19 -26.72,-196.45 -62.41,-108.88 -118.16,-226.99 -57.04,-275.24 55.46,-43.78 177.98,1.56 266.19,113.27 88.19,111.72 103.85,241.42 48.39,285.22l-53 -67.13c42.76,-33.76 60.84,-105.75 -15.39,-202.31 -76.22,-96.55 -150.4,-95.67 -193.17,-61.91l-0 -0zm127.53 767.55c0.07,0.36 0.14,0.7 0.23,1.05 3.38,13.01 8.53,26.39 15.63,40.1 39.03,75.36 116.17,121.87 201.32,121.44l0.15 26.88c-94.52,0.5 -180.15,-50.86 -224.15,-134.04l-0.31 0.17c-45.07,-85.17 -36.17,-184.7 14.44,-259.42 0.13,-0.19 0.27,-0.34 0.39,-0.53 4.39,-6.48 9.11,-12.79 14.14,-18.85 0.67,-0.83 1.47,-1.6 2.16,-2.42 4.57,-5.36 9.28,-10.6 14.3,-15.59 1.41,-1.43 3,-2.68 4.47,-4.08 4.5,-4.23 9.02,-8.47 13.87,-12.41 2.31,-1.86 4.85,-3.54 7.24,-5.36 4.24,-3.21 8.45,-6.46 12.94,-9.43 3.29,-2.17 6.83,-4.06 10.24,-6.1 3.57,-2.14 6.98,-4.41 10.69,-6.37 0.37,-0.2 0.73,-0.32 1.07,-0.51 0.39,-0.21 0.71,-0.43 1.09,-0.63 1.57,-0.8 3.17,-1.37 4.74,-2.13l0.03 0.06c121.6,-59.74 269.89,-12.44 333.67,108.1 62.85,118.8 20.66,265.41 -93.33,333.7l0.31 0.6 -23.75 12.57 -197.85 -373.92c-57.7,32.66 -102.04,74.27 -119.89,123.22 -0.03,0.06 -0.07,0.15 -0.09,0.25 -1.83,5.04 -3.33,10.17 -4.57,15.38 -0.29,1.21 -0.48,2.44 -0.74,3.67 -0.88,4.16 -1.6,8.36 -2.11,12.62 -0.29,2.51 -0.39,5.06 -0.53,7.62 -0.19,3.11 -0.38,6.22 -0.36,9.37 0.07,4 0.38,8.07 0.75,12.15 0.18,1.85 0.27,3.67 0.49,5.53 0.8,5.7 1.89,11.49 3.36,17.34l-0.01 -0zm147.47 -219.75l160.01 302.4c102.62,-58.1 163.05,-144.47 107.1,-250.19 -55.94,-105.72 -161.36,-104.33 -267.12,-52.21l0.01 0zm561.98 696.58l-25.54 8.89c-40.84,-117.22 -169.24,-179.43 -286.45,-138.59l-188.68 65.72c-15.72,5.48 -29.89,14.63 -41.39,26.67l-3.36 3.54 -37.16 -106.65c20.49,5.65 42.22,4.93 62.29,-2.06l365.51 -127.34c19.34,-6.75 36.5,-18.64 49.63,-34.4l0.03 0 37.14 106.63c-20.07,-4.19 -40.92,-2.88 -60.3,3.88l-77.43 26.99c91.56,11.99 173.31,73.74 205.69,166.72l0 -0zm-404.7 338.72c-0.04,0.35 -0.07,0.69 -0.09,1.06 -0.43,13.43 0.71,27.73 3.67,42.89 16.13,83.31 76.96,149.74 158.76,173.39l-7.44 25.83c-90.81,-26.26 -158.41,-99.71 -177.12,-191.94l-0.34 0.07c-19.15,-94.43 17.54,-187.39 87.2,-244.74 0.16,-0.15 0.35,-0.25 0.52,-0.39 6.04,-4.97 12.35,-9.7 18.88,-14.09 0.89,-0.61 1.87,-1.11 2.77,-1.7 5.89,-3.86 11.88,-7.55 18.11,-10.92 1.76,-0.98 3.64,-1.72 5.44,-2.66 5.5,-2.78 11.04,-5.57 16.81,-7.97 2.75,-1.13 5.65,-2.04 8.46,-3.1 4.96,-1.88 9.94,-3.81 15.07,-5.39 3.78,-1.15 7.7,-1.97 11.56,-2.94 4.02,-1.05 7.94,-2.26 12.05,-3.09 0.41,-0.08 0.78,-0.1 1.16,-0.19 0.44,-0.08 0.82,-0.2 1.22,-0.3 1.72,-0.33 3.42,-0.42 5.15,-0.71l0.01 0.06c133.52,-22.91 262.39,64.37 289.48,198.02 26.71,131.72 -55.22,260.42 -183.87,293.68l0.13 0.67 -26.33 5.33 -84.06 -414.59c-64.57,15.03 -118.88,42.39 -149.82,84.3 -0.06,0.06 -0.12,0.13 -0.17,0.22 -3.17,4.31 -6.07,8.81 -8.73,13.45 -0.61,1.08 -1.16,2.21 -1.75,3.31 -2.02,3.74 -3.89,7.58 -5.59,11.52 -0.98,2.32 -1.81,4.74 -2.67,7.16 -1.05,2.91 -2.12,5.87 -2.99,8.89 -1.06,3.86 -1.92,7.84 -2.7,11.87 -0.36,1.82 -0.8,3.59 -1.11,5.44 -0.84,5.69 -1.43,11.55 -1.67,17.58l0 0zm203.57 -169.09l67.99 335.29c114.85,-26.71 197.23,-92.47 173.47,-209.69 -23.77,-117.22 -125.28,-145.7 -241.46,-125.59l0 -0zm280.88 613.14l-10.36 0.14c47.2,49.39 74.82,117.72 69.28,192.71 -9.7,131.28 -122.27,231.37 -253.9,233.06l-246.11 3.15 -1.04 -80.58 298.76 -3.83c98.7,-1.26 180.4,-82.61 175.87,-181.19 -3.01,-65.54 -34.18,-123.59 -81.46,-162.8l-339.35 4.34c-20.5,0.26 -40.56,6.11 -58.01,16.91l-1.44 -112.93c17.71,10.35 37.91,15.69 58.42,15.43l388.31 -4.97c20.48,-0.26 40.56,-6.11 58,-16.91l1.45 112.93c-17.71,-10.35 -37.91,-15.69 -58.42,-15.45l-0 -0.01zm-405.37 533.31l384.89 45.41c20.38,2.41 41.03,-0.78 59.73,-9.22l-13.24 112.14 -0.01 0.01c-16.21,-12.57 -35.55,-20.46 -55.91,-22.87l-384.9 -45.42c-20.35,-2.41 -40.98,0.8 -59.69,9.22l-0.02 0 13.24 -112.15c16.22,12.56 35.56,20.48 55.92,22.87l-0.01 0zm520.72 161.41c-32.34,-3.82 -55.49,-33.13 -51.67,-65.48 3.82,-32.38 33.16,-55.47 65.49,-51.65 32.33,3.81 55.49,33.12 51.67,65.5 -3.82,32.35 -33.13,55.45 -65.49,51.63l0 0zm-630.44 286.93l-26.28 -5.51c23.2,-110.56 137.56,-207.94 248.13,-184.73l266.44 55.92 15.41 -73.46 26.28 5.52 -15.42 73.46 129.8 27.23 -16.54 78.89 -129.81 -27.24 -35.04 166.96 -26.27 -5.52 35.03 -166.96 -266.43 -55.92c-96.06,-20.17 -185.11,15.3 -205.3,111.36l0 -0zm283 632.84l-28.02 75.58c-265.97,-98.61 -316.58,-300.15 -347.13,-458.35 -20.83,-107.83 -55.96,-142.63 -135.15,-171.98l28.02 -75.57c84.44,31.3 107.72,113.06 127.32,210.87 67.36,-71.09 173.02,-99.54 270.48,-63.41l177.03 65.63c19.22,7.12 40.07,8.88 60.22,5.07l-39.27 105.9c-12.8,-16.04 -29.73,-28.27 -48.96,-35.41l-177.06 -65.63c-92.22,-34.19 -181.02,-35.27 -235.43,23.57 30.94,157.58 98.36,291.19 347.94,383.72l-0.01 0.01zm-740.09 735.29c-106.78,-77.84 -137.37,-240.05 -55.5,-352.34 81.87,-112.3 245.66,-132.78 352.44,-54.94 106.76,77.84 137.36,240.03 55.5,352.33 -81.88,112.29 -245.66,132.79 -352.44,54.95zm47.5 -65.15c95.37,69.54 211.13,95.46 284.26,-4.85 73.13,-100.31 13.05,-202.6 -82.32,-272.13 -95.41,-69.57 -211.17,-95.46 -284.3,4.83 -73.13,100.33 -13.03,202.61 82.35,272.15zm-242.17 610.89l-82.29 77.36c-4.33,-20.05 -14.04,-38.54 -28.09,-53.49l-133.28 -141.8c-97.38,-103.6 -89.94,-268.49 18.24,-362.72 102.9,-89.65 259.75,-77.4 353.22,22.04l129.03 137.28c14.05,14.94 31.91,25.75 51.63,31.34l0 0.02 -82.27 77.35c-4.33,-20.05 -14.04,-38.54 -28.09,-53.5l-133.28 -141.76c-84.5,-89.91 -187.34,-131.17 -277.39,-48.2 -70.91,65.32 -71.5,177.47 -5.44,247.72l166.37 177c14.06,14.95 31.91,25.8 51.63,31.37l0 -0.01zm-695.35 -82.18l-15.26 -22.09c92.95,-64.19 242.92,-56.06 307.12,36.89l154.69 224.02 61.76 -42.64 15.25 22.09 -61.75 42.65 75.37 109.13 -66.32 45.8 -75.37 -109.13 -140.37 96.93 -15.26 -22.09 140.38 -96.95 -154.71 -224.02c-55.75,-80.75 -144.75,-116.35 -225.53,-60.59l-0.01 -0zm-201.19 746.22l-240.14 -476.43c-9.22,-18.3 -23.29,-33.76 -40.64,-44.69l100.85 -50.85c-1.53,20.47 2.53,40.94 11.77,59.27l4.29 8.51c21.33,-57.68 63.38,-107.84 122.52,-137.65 132.59,-66.84 296.84,-5.09 349.99,138.14 40.34,108.61 -0.69,233.36 -97.52,297.03 -65.39,43.02 -141.43,51.15 -209.17,31.46l70.03 138.94c9.23,18.31 23.29,33.77 40.65,44.7l-100.85 50.83c1.53,-20.45 -2.54,-40.95 -11.76,-59.26l-0 -0zm-15.43 -209.68c58.76,24.76 127.55,24.74 188.81,-6.14 110.85,-55.89 107.57,-167.31 51.71,-278.16 -55.87,-110.84 -143.51,-179.74 -254.35,-123.87 -61.28,30.88 -102.22,86.15 -117.25,148.12l131.08 260.05 0 0zm-734.85 90.02c-36.51,-126.98 38.88,-273.81 172.44,-312.2 133.56,-38.41 275.42,45.94 311.93,172.93 36.52,126.98 -38.88,273.79 -172.43,312.19 -133.55,38.4 -275.43,-45.95 -311.94,-172.93l0 0zm77.48 -22.28c32.62,113.44 108.09,204.95 227.39,170.64 119.3,-34.3 134.65,-151.93 102.02,-265.35 -32.62,-113.47 -108.09,-204.97 -227.39,-170.67 -119.31,34.3 -134.64,151.93 -102.02,265.38zm-669.92 89.26c-12.99,-131.5 87.65,-262.31 225.95,-275.98 138.31,-13.68 262.62,94.89 275.63,226.39 12.99,131.48 -87.66,262.29 -225.96,275.96 -138.28,13.68 -262.61,-94.89 -275.62,-226.37l0 -0zm80.22 -7.94c11.62,117.46 69.34,221.08 192.88,208.87 123.52,-12.21 159.85,-125.13 148.23,-242.59 -11.61,-117.5 -69.34,-221.13 -192.88,-208.91 -123.53,12.22 -159.84,125.16 -148.24,242.63l0 -0zm-517.72 236.69l1.39 -27.02c123.97,6.39 230,-89.07 236.39,-213.03l10.28 -199.52c0.85,-16.63 -2.27,-33.22 -9.09,-48.39l-2 -4.45 112.78 5.82c-12.96,16.84 -20.48,37.23 -21.57,58.47l-19.93 386.54c-1.06,20.47 3.5,40.85 13.14,58.95l-0.01 0.02 -112.76 -5.81c11.46,-17.02 18.09,-36.81 19.15,-57.3l4.2 -81.89c-45.62,80.26 -133.65,132.69 -231.97,127.63l-0 -0.01zm-133.26 -156.78c11.57,-58.56 -54,-98.37 -147.63,-131.77 -120.78,-46.81 -237.13,-98.57 -222.58,-172.26 13.69,-69.31 136.24,-114.49 275.89,-86.91 139.63,27.58 235.82,115.99 222.13,185.29l-83.89 -16.57c10.56,-53.45 -22.47,-119.87 -143.15,-143.71 -120.7,-23.85 -176.51,25.03 -187.07,78.48 -10.78,54.57 42.9,91.19 147.98,131.93 118.18,42.17 237.33,95.7 222.24,172.09 -13.7,69.32 -136.27,114.49 -275.89,86.91 -139.65,-27.57 -235.84,-115.94 -222.17,-185.3l83.92 16.58c-10.57,53.45 22.49,119.9 143.17,143.73 120.68,23.84 176.48,-25.04 187.03,-78.49zm-2118.8 -1187.4c47.65,-35.94 25.29,-109.32 -22.25,-196.64 -58.83,-115.37 -111.07,-231.52 -51.12,-276.74 56.41,-42.55 177.87,5.44 263.59,119.08 85.71,113.61 98.49,243.63 42.11,286.16l-51.5 -68.26c43.5,-32.82 63.13,-104.35 -10.93,-202.54 -74.1,-98.22 -148.28,-98.97 -191.78,-66.17 -44.39,33.49 -28.79,96.58 22.41,196.98 59.99,110.21 113.13,229.5 50.97,276.4 -56.41,42.56 -177.9,-5.46 -263.6,-119.07 -85.71,-113.63 -98.52,-243.61 -42.1,-286.21l51.5 68.3c-43.5,32.8 -63.13,104.37 10.95,202.57 74.08,98.19 148.25,98.94 191.74,66.14l-0 0zm-110.19 -769.46c-0.05,-0.37 -0.11,-0.7 -0.19,-1.06 -3.09,-13.07 -7.94,-26.57 -14.74,-40.44 -37.33,-76.2 -113.43,-124.41 -198.56,-125.87l0.44 -26.87c94.51,1.61 178.97,54.84 221.11,138.98l0.31 -0.17c43.17,86.15 32.06,185.46 -20.2,259.03 -0.12,0.19 -0.26,0.34 -0.4,0.53 -4.54,6.37 -9.38,12.59 -14.54,18.53 -0.69,0.81 -1.49,1.56 -2.22,2.36 -4.69,5.26 -9.5,10.4 -14.63,15.28 -1.44,1.39 -3.04,2.62 -4.56,3.99 -4.59,4.12 -9.2,8.26 -14.15,12.09 -2.36,1.81 -4.92,3.45 -7.34,5.2 -4.31,3.13 -8.6,6.28 -13.15,9.15 -3.34,2.09 -6.92,3.91 -10.4,5.87 -3.61,2.06 -7.06,4.26 -10.82,6.13 -0.38,0.19 -0.73,0.3 -1.07,0.49 -0.39,0.2 -0.73,0.42 -1.1,0.59 -1.58,0.78 -3.2,1.32 -4.79,2.03l-0.04 -0.06c-122.88,57.01 -270.07,6.45 -331.17,-115.48 -60.2,-120.16 -14.76,-265.79 100.72,-331.52l-0.3 -0.61 24.03 -12.04 189.49 378.22c58.41,-31.38 103.67,-72 122.58,-120.53 0.04,-0.06 0.09,-0.15 0.11,-0.24 1.94,-5 3.56,-10.11 4.91,-15.27 0.31,-1.21 0.55,-2.44 0.83,-3.65 0.96,-4.15 1.79,-8.33 2.39,-12.59 0.35,-2.5 0.51,-5.06 0.7,-7.6 0.26,-3.1 0.52,-6.22 0.57,-9.37 0.02,-4 -0.19,-8.07 -0.48,-12.17 -0.14,-1.85 -0.17,-3.68 -0.37,-5.54 -0.66,-5.72 -1.64,-11.52 -2.97,-17.41l0.02 0.01zm-418.19 158.28c53.57,106.93 159,107.89 265.88,58.12l-153.25 -305.87c-103.88,55.81 -166.21,140.82 -112.63,247.74l0 0.01zm-280.56 -650.65l25.73 -8.33c38.23,118.09 165.22,183.13 283.31,144.88l190.08 -61.53c15.82,-5.13 30.19,-13.96 41.95,-25.74l3.45 -3.47 34.78 107.44c-20.35,-6.1 -42.1,-5.86 -62.31,0.69l-368.23 119.22c-19.51,6.32 -36.93,17.83 -50.4,33.3l-0.02 0 -34.78 -107.43c19.98,4.65 40.84,3.78 60.37,-2.54l78.01 -25.28c-91.26,-14.01 -171.65,-77.55 -201.96,-171.22l0.01 0zm412.06 -329.74c0.04,-0.35 0.09,-0.69 0.1,-1.07 0.73,-13.42 -0.11,-27.73 -2.72,-42.95 -14.29,-83.65 -73.65,-151.41 -154.91,-176.85l8.04 -25.65c90.2,28.24 156.18,103.17 172.85,195.79l0.34 -0.07c17.06,94.84 -21.65,186.98 -92.56,242.79 -0.18,0.15 -0.35,0.24 -0.54,0.38 -6.14,4.84 -12.55,9.42 -19.19,13.67 -0.89,0.59 -1.87,1.07 -2.8,1.63 -5.98,3.74 -12.05,7.3 -18.35,10.52 -1.78,0.94 -3.67,1.66 -5.5,2.54 -5.56,2.67 -11.16,5.33 -16.98,7.61 -2.78,1.07 -5.7,1.9 -8.53,2.91 -5.01,1.77 -10.02,3.59 -15.19,5.06 -3.8,1.06 -7.76,1.79 -11.62,2.7 -4.05,0.95 -7.99,2.08 -12.11,2.82 -0.41,0.07 -0.78,0.08 -1.17,0.17 -0.43,0.08 -0.82,0.19 -1.23,0.27 -1.72,0.3 -3.43,0.34 -5.16,0.61l-0.02 -0.08c-134,19.98 -260.9,-70.12 -285.06,-204.35 -23.81,-132.27 60.95,-259.14 190.3,-289.57l-0.13 -0.66 26.45 -4.77 74.92 416.36c64.89,-13.6 119.78,-39.76 151.65,-80.99 0.06,-0.04 0.11,-0.12 0.16,-0.19 3.28,-4.25 6.28,-8.69 9.04,-13.28 0.64,-1.05 1.21,-2.18 1.81,-3.26 2.1,-3.7 4.08,-7.49 5.85,-11.39 1.04,-2.31 1.91,-4.71 2.83,-7.1 1.11,-2.89 2.25,-5.82 3.17,-8.81 1.17,-3.85 2.1,-7.81 2.97,-11.82 0.4,-1.81 0.87,-3.58 1.22,-5.42 0.96,-5.68 1.69,-11.51 2.07,-17.54l0.02 0zm-207.26 164.57l-60.58 -336.72c-115.43,24.19 -199.24,88.12 -178.05,205.83 21.17,117.72 122.04,148.43 238.63,130.89zm-267.31 -619.39l10.36 0.09c-46.12,-50.41 -72.22,-119.33 -65.04,-194.19 12.59,-131.02 127.32,-228.62 258.95,-227.41l246.13 2.26 -0.74 80.58 -298.76 -2.74c-98.7,-0.91 -182.17,78.63 -179.81,177.29 1.57,65.58 31.44,124.31 77.85,164.54l339.35 3.12c20.49,0.19 40.69,-5.22 58.36,-15.65l-1.03 112.94c-17.5,-10.74 -37.55,-16.52 -58.06,-16.71l-388.31 -3.56c-20.5,-0.18 -40.69,5.22 -58.35,15.65l1.03 -112.93c17.48,10.73 37.54,16.52 58.06,16.72l0 -0zm-100.13 -696.91c32.24,4.52 54.76,34.33 50.23,66.59 -4.52,32.28 -34.36,54.74 -66.59,50.21 -32.24,-4.52 -54.75,-34.33 -50.23,-66.6 4.52,-32.26 34.32,-54.72 66.59,-50.2zm517.05 172.7l-383.76 -53.78c-20.33,-2.85 -41.04,-0.11 -59.93,7.93l15.67 -111.83 0.03 0.01c15.93,12.92 35.08,21.22 55.39,24.07l383.8 53.79c20.3,2.84 40.99,0.1 59.87,-7.92l0.02 0 -15.68 111.83c-15.93,-12.91 -35.1,-21.24 -55.41,-24.08l-0 0zm119.56 -445.92l26.17 6.09c-25.63,110.02 -142.11,204.85 -252.13,179.21l-265.15 -61.77 -17.02 73.08 -26.15 -6.09 17.02 -73.1 -129.17 -30.09 18.3 -78.49 129.17 30.09 38.7 -166.15 26.17 6.09 -38.71 166.15 265.15 61.77c95.58,22.27 185.37,-11.22 207.66,-106.81l0 0zm-269.03 -638.7l29.67 -74.94c263.71,104.41 309.86,307.01 336.93,465.83 18.44,108.26 52.79,143.81 131.3,174.91l-29.67 74.94c-83.71,-33.15 -105.17,-115.4 -122.63,-213.59 -68.88,69.57 -175.13,95.68 -271.77,57.42l-175.54 -69.51c-19.06,-7.53 -39.85,-9.76 -60.09,-6.39l41.58 -105c12.45,16.31 29.1,28.93 48.17,36.48l175.56 69.51c91.44,36.21 180.18,39.24 235.85,-18.37 -27.44,-158.21 -91.92,-293.26 -339.37,-391.26l0 -0zm756.19 -718.74c105.02,80.19 132,243.02 47.65,353.47 -84.33,110.45 -248.52,127.3 -353.54,47.1 -105.02,-80.19 -132,-243.02 -47.66,-353.46 84.34,-110.43 248.54,-127.3 353.55,-47.11zm-48.93 64.07c-93.82,-71.63 -208.96,-100.12 -284.3,-1.45 -75.33,98.65 -17.55,202.25 76.26,273.89 93.84,71.65 209,100.12 284.33,1.46 75.33,-98.66 17.52,-202.26 -76.29,-273.9l0 0zm255.34 -605.39l83.96 -75.55c3.89,20.13 13.19,38.84 26.93,54.09l130.16 144.65c95.09,105.69 84.06,270.38 -26.13,362.25 -104.83,87.39 -261.38,71.72 -352.67,-29.72l-126.02 -140.05c-13.71,-15.23 -31.34,-26.44 -50.94,-32.45l0 -0.01 83.93 -75.54c3.89,20.14 13.19,38.84 26.92,54.1l130.15 144.63c82.53,91.72 184.46,135.21 276.31,54.21 72.3,-63.76 75.31,-175.88 10.82,-247.55l-162.48 -180.57c-13.72,-15.26 -31.35,-26.48 -50.94,-32.5l0 -0zm693.42 97.2l14.78 22.43c-94.33,62.15 -244.08,50.74 -306.23,-43.59l-149.78 -227.32 -62.66 41.29 -14.78 -22.43 62.66 -41.28 -72.96 -110.75 67.3 -44.35 72.96 110.75 142.46 -93.85 14.78 22.42 -142.46 93.85 149.78 227.33c54,81.96 142.18,119.48 224.15,65.5l-0 0zm217.5 -741.56l229.61 481.63c8.82,18.51 22.54,34.27 39.65,45.59l-101.95 48.6c1.99,-20.43 -1.62,-40.99 -10.44,-59.52l-4.11 -8.62c-22.59,57.21 -65.75,106.44 -125.54,134.94 -134.04,63.91 -296.91,-1.43 -346.89,-145.82 -37.94,-109.48 5.84,-233.31 104.05,-294.84 66.33,-41.58 142.54,-48.03 209.83,-26.85l-66.96 -140.45c-8.82,-18.5 -22.54,-34.28 -39.66,-45.59l101.95 -48.61c-1.97,20.41 1.66,41 10.47,59.52l0 0.01zm10.81 209.97c-58.19,-26.04 -126.98,-27.53 -188.92,2 -112.05,53.42 -111.25,164.91 -57.82,276.97 53.42,112.06 139.53,182.88 251.57,129.45 61.95,-29.54 104.1,-83.9 120.5,-145.52l-125.34 -262.9zm736.89 -73.75c33.7,127.75 -44.91,272.86 -179.27,308.3 -134.36,35.45 -274.31,-52.01 -308.01,-179.78 -33.7,-127.74 44.9,-272.85 179.27,-308.28 134.35,-35.43 274.33,52.02 308.01,179.76zm-77.94 20.56c-30.1,-114.11 -103.52,-207.26 -223.55,-175.6 -120.01,31.65 -137.95,148.9 -107.85,263.02 30.12,114.15 103.54,207.3 223.56,175.63 120.02,-31.65 137.95,-148.92 107.84,-263.05l0 0zm671.56 -74.44c10.12,131.73 -93.37,260.29 -231.92,270.92 -138.55,10.64 -260.43,-100.62 -270.54,-232.35 -10.11,-131.73 93.37,-260.28 231.92,-270.92 138.52,-10.64 260.44,100.62 270.54,232.34zm-80.36 6.17c-9.03,-117.68 -64.47,-222.53 -188.22,-213.03 -123.76,9.5 -162.54,121.59 -153.51,239.26 9.04,117.7 64.46,222.55 188.22,213.06 123.76,-9.5 162.54,-121.61 153.5,-239.3zm522.93 -225.35l-1.98 26.98c-123.81,-9.1 -231.92,84.01 -241.02,207.83l-14.64 199.27c-1.23,16.61 1.53,33.24 8.03,48.57l1.9 4.5 -112.64 -8.28c13.32,-16.56 21.3,-36.79 22.87,-57.98l28.37 -386.06c1.5,-20.44 -2.6,-40.91 -11.85,-59.23l0.02 -0.01 112.61 8.28c-11.84,16.75 -18.9,36.41 -20.4,56.87l-6.01 81.79c47.4,-79.25 136.55,-129.75 234.75,-122.53l-0 -0zm129.83 159.72c-12.84,58.28 51.83,99.52 144.72,134.98 119.72,49.44 234.91,103.72 218.75,177.07 -15.21,69 -138.72,111.48 -277.74,80.85 -138.98,-30.63 -233.21,-121.12 -218,-190.09l83.5 18.4c-11.73,53.21 19.84,120.33 139.96,146.81 120.16,26.48 177.01,-21.17 188.74,-74.38 11.96,-54.3 -40.9,-92.1 -145.06,-135.12 -117.23,-44.76 -235.16,-100.87 -218.41,-176.93 15.21,-69 138.74,-111.48 277.72,-80.85 139.01,30.63 233.24,121.09 218.04,190.12l-83.51 -18.4c11.72,-53.21 -19.86,-120.37 -140,-146.84 -120.12,-26.48 -176.98,21.17 -188.71,74.39l-0.01 -0.01z"/>
 </g>
</svg>
