<?xml version="1.0" encoding="UTF-8"?><svg id="Layer_2" xmlns="http://www.w3.org/2000/svg" viewBox="0 0 304.9468 156.0116"><g id="Components"><g id="_02a22db9-ff32-4efb-9fbf-00159fa37ff0_5"><path d="m149.2107,138.9124h-2.953c.277.4626.4235.9902.4235,1.5278v4.085c-1.3503-1.2607-3.2217-1.9709-5.2545-1.7332-3.01.3486-5.4353,2.7854-5.7725,5.8083-.4447,3.9841,2.6631,7.3721,6.5461,7.3721,1.7314,0,3.3032-.6809,4.4808-1.7788v.2478c0,.5405-.1465,1.0684-.4235,1.5276h2.953c-.2769-.4592-.4235-.9871-.4235-1.5276v-14.0012c.0016-.5376.1466-1.0652.4235-1.5278Zm-2.5295,14.2683c-1.0815,1.2737-2.6875,2.0847-4.4808,2.0847-3.2462,0-4.4808-2.6484-4.4808-5.906s1.2346-5.9092,4.4808-5.9092c1.7933,0,3.3993.8145,4.4808,2.0881v7.6423Z" style="fill:#fff;"/><path d="m130.8297,139.3065h-2.1077v3.4792h-1.9628v.7068h1.9628v7.144c0,2.9644,3.1061,5.375,6.0591,5.375v-.7036c-2.567-.0034-3.9514-2.0979-3.9514-4.6714v-7.144h4.4596v-.7068h-4.4596v-3.4792Z" style="fill:#fff;"/><path d="m67.8196,83.1715c-11.5449,0-20.9529,9.2192-21.2982,20.6826h-.0049c-.0065.1499-.026.2932-.0277.4397,0,.0359.0033.0686.0033.1077.0016.0325-.0033.0649-.0033.1008,0,.3518.0342.6973.0537,1.0491.0164.3389.0181.6775.049,1.0098.0455.4529.1222.896.1937,1.3423.0408.2507.0669.5049.1157.7524.1025.5178.2395,1.0261.3779,1.5278.0471.166.0781.3354.1287.4983.1759.5735.3811,1.1304.6025,1.6843.0327.0845.0587.1758.0945.2573.2542.6189.5408,1.2214.8503,1.8047.0098.0161.0146.0325.0244.052,3.5867,6.7434,10.6816,11.3496,18.8386,11.3496v-.0293c7.9666,0,15.1968-4.3718,18.9023-11.4636l-2.0166-1.0554c-3.3374,6.3882-9.8721,10.3201-17.0551,10.2549-1.308-.0098-2.5133-.1562-3.6193-.417-.0309-.0066-.0586-.0164-.0879-.0227-.4968-.1238-.9724-.2705-1.4302-.4365-.1482-.0586-.2882-.1238-.4331-.1824-.3209-.1335-.637-.2705-.9399-.4268-.2361-.1206-.4625-.2607-.6873-.3975-.1858-.1108-.3713-.2214-.549-.342-.2981-.2053-.5848-.4268-.8617-.6582-.0813-.0649-.1644-.1301-.2443-.1987-.3405-.2996-.6646-.6155-.9691-.9512-.0066-.0063-.0115-.0129-.0164-.0161-2.9546-3.2739-4.313-8.2385-4.4727-13.8481h35.8108v-2.2739h-.0586c-.5945-11.2319-9.895-20.1938-21.2705-20.1938Zm-14.4817,20.1907c.2866-9.978,4.3555-17.9202,14.4817-17.9202s14.1934,7.9421,14.4784,17.9202h-28.9601Z" style="fill:#fff;"/><path d="m21.1157,74.0077c10.41,0,14.4098,5.3276,14.4098,11.8757h6.705c.0018-7.7803-9.4709-14.1111-21.1147-14.1111S0,78.1031,0,85.8851c0,8.6892,11.1648,12.093,20.8513,14.0808,11.8208,2.8801,14.6742,5.8765,14.6742,11.9092,0,6.5481-3.9998,11.8762-14.4098,11.8762s-14.4106-5.3281-14.4106-11.8762H0c0,7.7817,9.4731,14.1128,21.1157,14.1128s21.1147-6.3311,21.1147-14.1128c0-8.3071-10.3003-11.5103-20.8905-14.0894-13.212-2.7104-14.6349-6.3804-14.6349-11.8989.0017-6.5515,3.9998-11.8792,14.4106-11.8792Z" style="fill:#fff;"/><path d="m122.7639,144.2418v6.375c0,2.5312-2.0198,4.665-4.5396,4.6389-3.2021-.0325-4.4221-2.6711-4.4221-5.9092v-5.1047c0-.5376.1465-1.0652.4219-1.5278h-2.9514c.2753.4626.4219.9902.4219,1.5278v4.9451c0,3.5801,2.7689,6.6326,6.3344,6.7693,3.7479.1433,6.8427-2.8765,6.8427-6.6064v-5.1079c0-.5376.1465-1.0652.4235-1.5278h-2.953c.2753.4626.4219.9902.4219,1.5278Z" style="fill:#fff;"/><path d="m119.3613,105.5514c.0164.3389.0178.6775.0488,1.0098.0457.4529.1222.896.1938,1.3423.0408.2507.0668.5049.1157.7524.1025.5178.2394,1.0261.3778,1.5278.0472.166.0782.3354.1287.4983.1759.5735.3812,1.1304.6027,1.6843.0326.0845.0586.1758.0945.2573.2542.6189.5408,1.2214.8502,1.8047.0098.0161.0146.0325.0244.052,3.5865,6.7434,10.6818,11.3496,18.8387,11.3496v-.0293c7.9664,0,15.1967-4.3718,18.9022-11.4636l-2.0165-1.0554c-3.3374,6.3882-9.8721,10.3201-17.0552,10.2549-1.3079-.0098-2.5132-.1562-3.6191-.417-.031-.0066-.0586-.0164-.088-.0227-.4967-.1238-.9723-.2705-1.4301-.4365-.1482-.0586-.2883-.1238-.4333-.1824-.3208-.1335-.6367-.2705-.9397-.4268-.2362-.1206-.4626-.2607-.6874-.3975-.1857-.1108-.3715-.2214-.549-.342-.2981-.2053-.5847-.4268-.8616-.6582-.0815-.0649-.1646-.1301-.2444-.1987-.3403-.2996-.6646-.6155-.9691-.9512-.0065-.0063-.0114-.0129-.0162-.0161-2.9547-3.2739-4.3115-8.2385-4.4727-13.8481h35.8108v-2.2739h-.0587c-.5945-11.2319-9.8949-20.1938-21.2705-20.1938-11.5449,0-20.9529,9.2192-21.2982,20.6826h-.0049c-.0065.1499-.026.2932-.0276.4397,0,.0359.0032.0686.0032.1077.0017.0325-.0032.0649-.0032.1008,0,.3518.0342.6973.0537,1.0491Zm21.277-20.1094c10.1246,0,14.1934,7.9421,14.4784,17.9202h-28.96c.2866-9.978,4.3569-17.9202,14.4816-17.9202Z" style="fill:#fff;"/><path d="m102.6759,142.7662c-3.6339,0-6.5885,3.1565-6.5885,6.6226s2.9546,6.6228,6.5885,6.6228,6.5885-3.1567,6.5885-6.6228-2.9563-6.6226-6.5885-6.6226Zm0,12.5742c-3.2462,0-4.4808-2.8535-4.4808-5.9517s1.2346-5.9517,4.4808-5.9517,4.4808,2.8538,4.4808,5.9517-1.2346,5.9517-4.4808,5.9517Z" style="fill:#fff;"/><path d="m191.5659,83.0184c-6.3425-.5505-12.1556,1.7136-16.3872,5.6553v-.8762c.0016-1.7363.4756-3.4402,1.3713-4.9287h-9.561c.8959,1.4885,1.3699,3.1924,1.3699,4.9287v32.8691c0,1.7363-.474,3.4399-1.3699,4.9287h9.561c-.8958-1.4888-1.3698-3.1924-1.3698-4.9287v-28.7256c3.37-3.9612,8.3167-6.5347,13.8676-6.7205,8.3492-.2737,15.1462,6.7302,15.1462,15.0828v25.292h6.8214v-20.8357c0-11.1409-8.3492-20.78-19.4496-21.7412Z" style="fill:#fff;"/><path d="m222.347,70.5353c-2.7592,0-4.9939,2.238-4.9939,4.9941s2.233,4.9905,4.9923,4.9905c2.7576,0,4.9906-2.2346,4.9906-4.9905,0-2.7593-2.2314-4.9941-4.989-4.9941Z" style="fill:#fff;"/><path d="m218.9331,88.097v32.804c0,1.7363-.4724,3.4402-1.3682,4.929h9.5593v-.0032c-.8942-1.4856-1.3682-3.1895-1.3682-4.9258v-32.804c0-1.7363.4724-3.4399,1.3682-4.9255v-.0032h-9.5593c.8958,1.4888,1.3682,3.1924,1.3682,4.9287Z" style="fill:#fff;"/><path d="m243.8553,71.9427h-6.8214v11.2288h-6.3523v2.2705h6.3523v23.0444c0,9.5642,10.0547,17.3435,19.6157,17.3435v-2.2739c-8.3086-.0032-12.7943-6.7627-12.7943-15.0696v-23.0444h14.441v-2.2705h-14.441v-11.2288Z" style="fill:#fff;"/><path d="m298.1254,83.5365c-.0016,22.5327-8.6229,31.8137-20.2184,38.9055-6.2708-2.5864-8.7971-9.6653-8.7971-17.9917v-15.9851c0-1.7332.4724-3.4368,1.3682-4.9255h-9.5593c.8958,1.4888,1.3682,3.1924,1.3682,4.9255v15.9817c0,8.7988,5.3669,16.3501,12.9897,19.6042-7.1847,4.4336-12.9897,8.6848-12.9897,16.3076h6.823c0-7.1504,1.7283-10.9617,9.6735-15.7864,11.6573-7.0786,26.1635-17.0242,26.1635-41.0359h-6.8214Z" style="fill:#fff;"/><path d="m173.3153,142.7662c-3.6339,0-6.5885,3.1565-6.5885,6.6226s2.9546,6.6228,6.5885,6.6228,6.5885-3.1567,6.5885-6.6228-2.9563-6.6226-6.5885-6.6226Zm0,12.5742c-3.2462,0-4.4808-2.8535-4.4808-5.9517s1.2346-5.9517,4.4808-5.9517,4.4808,2.8538,4.4808,5.9517-1.2346,5.9517-4.4808,5.9517Z" style="fill:#fff;"/><path d="m198.0616,143.4535c3.2169,0,4.401,1.5442,4.401,2.9741h2.2363c-.0016-1.8535-2.9155-3.6418-6.6373-3.6418s-6.6357,1.7883-6.6357,3.6418c0,2.0427,3.326,2.8147,6.5721,3.3,2.901.5146,4.463,1.1858,4.463,2.645,0,1.427-1.1825,2.9712-4.3994,2.9712s-4.401-1.5442-4.401-2.9712h-2.2347c0,1.8538,2.9156,3.6389,6.6357,3.6389s6.6357-1.7852,6.6357-3.6389c0-1.9741-3.2462-2.7134-6.5803-3.3032-2.5719-.3843-4.4547-1.075-4.4547-2.6418,0-1.4299,1.1841-2.9741,4.3993-2.9741Z" style="fill:#fff;"/><path d="m184.0151,45.1964c-.0801,3.7-2.1101,6.4199-4.8701,8.6199-3.0699,2.45-6.8099,3.4602-10.4299,4.6501-1.1.3699-2.24.5898-3.38.8101-1.4.2698-2.7999.5398-4.12,1.0198-2.47.8901-4.79,2.25-7.12,3.51-1.61.8701-3.11,1.9502-4.6901,2.8701-2.3799,1.4099-4.49,3.0498-6.28,5.24-2.8298,3.47-6.5199,5.97-10.7599,7.4399-2.42.8601-4.9401,1.4202-7.4501,1.96-1.11.23-2.33.22-3.47.0601-4.04-.5601-7.9099-.03-11.72.9199v.02c-1.5701.3901-3.14.8501-4.7,1.3601-.66.21-1.2001.8301-1.8401,1.21-.0601.04-.13.0701-.2.1099-.3201.98-.51,2-.51,3.0303v33.3899c0,1.3999.33,2.79.98,4.05l.1899.3599h-9.5599c1.02-1.48,1.5699-3.23,1.5699-5.03v-32.7698c0-1.7302-.48-3.4302-1.3699-4.9202v-.01h8.7c.5699-.45,1.21-.78,1.9199-1.04,1.28-.47,2.5801-.8699,3.8901-1.21,4-1.0601,8.0798-1.49,12.2799-1.1699,6.9701.51,12.89-2.0901,18.24-6.25,2.14-1.6899,3.83-3.8101,4.62-6.3999,1.27-4.1301,3.4399-7.7603,5.71-11.3501,1.3201-2.1101,1.7201-4.29,1.3-6.6802-.38-2.2998-.74-4.6099-1.01-6.9199-.35-3.02.5701-5.77,1.92-8.4199.6-1.1899,1.2699-2.3501,1.84-3.55.27-.5601.49-1.1101.7-1.6799.76-2.0701,1.1401-4.24,1.05-6.54-.1-1.97.22-3.99.5-5.96.16-1.01.6899-1.98,1.29-3.01,1.51,2.5999,3.48,4.9299,3.9199,7.9199.79,5.3201,1.29,10.6501.22,15.9402-.1599.73-.3298,1.4399-.5399,2.1499-.9601,3.3398-2.58,6.3101-4.98,8.8501-1.67,1.7698-2.87,3.7898-3.7301,6.1199-.7799,2.0798-2.1099,3.95-3.1899,5.9399-.78,1.4299-1.54,2.8701-2.11,4.4402,3.03-2.0901,5.63-4.5701,7.98-7.3301,3.37-3.9502,6.53-8.0801,8-13.1301.26-.8499.4601-1.71.65-2.5798.5601-2.53.9199-5.1201,1.38-7.6702.11-.6399.1-1.3999-.16-1.99-1.11-2.6099-.74-5.4199-1.23-8.1199-.1-.5701-.05-1.1902-.24-1.7302-1.8101-5.1499-.14-9.7197,2.4299-14.0298,1.3801-2.3501,3.1401-4.5,4.8401-6.6401.74-.9399,1.8101-1.4399,3.3999-.7-.1499.7-.1499,1.5601-.5099,2.1899-2.75,4.76-2.4601,9.76-1.15,14.8101,1.51,5.73.24,10.6799-3.74,15.03-1.5701,1.75-2.6001,3.6899-2.89,6.1799-.2101,1.9202-.64,3.76-1.24,5.51-1.38,3.9302-3.67,7.49-6.3199,10.8201-2.27,2.8601-4.8801,5.45-7.3501,8.1599-.23.27-.49.52-.74.79.0901.1299.1899.27.28.3999,3.1799-1.9199,6.39-3.7598,9.5-5.7798.87-.55,1.55-1.5,2.12-2.3901,1.1901-1.8398,2.3199-3.73,3.4601-5.6099.3799-.6201.7699-1.23,1.1499-1.8401,1.41-2.2,3.3501-3.95,5.55-5.3201,3.29-2,5.8-4.6899,7.78-7.96.73-1.21,1.6499-2.3,2.52-3.4199.5-.6201.5399-.5801,1.75-.6802,0,4.6501.0798,9.3-.03,13.9502Z" style="fill:#fff;"/><path d="m184.8081,146.4439v-2.1499c0-.541.1466-1.0686.4219-1.5278h-2.9514c.2753.4592.4219.9902.4219,1.5278v10.1572c0,.5569-.1694,1.1011-.4838,1.5603h2.9514l-.0587-.114c-.197-.3877-.3013-.8176-.3013-1.2576v-5.2415c0-3.2576,2.6404-5.9028,5.8865-5.9028v-.71c-2.5752,0-4.8032,1.4951-5.8865,3.6582Z" style="fill:#fff;"/><path d="m158.1316,142.7662c-3.6338,0-6.5884,3.1565-6.5884,6.6226s2.9546,6.6228,6.5884,6.6228,6.5886-3.1567,6.5886-6.6228-2.9563-6.6226-6.5886-6.6226Zm0,12.5742c-3.2461,0-4.4807-2.8535-4.4807-5.9517s1.2346-5.9517,4.4807-5.9517,4.481,2.8538,4.481,5.9517-1.2347,5.9517-4.481,5.9517Z" style="fill:#fff;"/></g></g></svg>