<?xml version="1.0" encoding="UTF-8"?><svg id="Layer_2" xmlns="http://www.w3.org/2000/svg" viewBox="0 0 500.9365 91.973"><g id="Components"><path id="c0d49456-fa4d-4144-8974-81e22f545a3f_5" d="m5.5449,11.6723c0,4.5636,1.1767,7.5984,12.1027,9.8397,8.7578,2.1328,17.2758,4.7819,17.2758,11.6517,0,6.4354-7.8322,11.6709-17.4613,11.6709S0,39.5991,0,33.1637h5.5449c0,5.4147,3.3077,9.8212,11.9172,9.8212s11.9164-4.4065,11.9164-9.8212c0-4.9892-2.3596-7.4671-12.1351-9.8485C9.2331,21.6713,0,18.8563,0,11.6709,0,5.2355,7.834,0,17.462,0s17.4628,5.2355,17.4613,11.6694h-5.5449c0-5.4154-3.3077-9.8212-11.9164-9.8212S5.5463,6.254,5.5449,11.6723Zm46.859,30.9918c.0236.0066.0454.014.0697.0192.8784.208,1.8349.323,2.8722.3319,5.6997.0501,10.8854-3.068,13.5341-8.1375l1.6004.8356c-2.9404,5.6278-8.6785,9.0977-15.0003,9.0977v.0236c-6.4723,0-12.1023-3.6558-14.9483-9.0078-.0077-.0133-.0122-.0258-.0192-.0391-.2463-.4646-.4738-.9425-.6752-1.4315-.0288-.0664-.049-.1372-.0756-.205-.1752-.4395-.3385-.8835-.4772-1.3386-.0402-.1283-.0653-.2618-.1021-.3931-.1099-.3997-.2194-.8017-.3002-1.2139-.0383-.1954-.059-.399-.0918-.5974-.0575-.3525-.118-.705-.1534-1.0642-.0247-.2648-.0262-.5339-.0398-.8009-.0147-.2788-.0424-.5531-.0424-.8341,0-.028.0041-.0531.0029-.0796,0-.0295-.0029-.056-.0029-.0841.0015-.118.0177-.2308.0221-.3488h.0041c.274-9.0963,7.7396-16.4137,16.9004-16.4137,9.0277,0,16.4067,7.1109,16.8798,16.0243h.0454v1.8054h-28.4164c.1272,4.4515,1.2043,8.3912,3.5499,10.9879.0026.0044.007.0096.0118.014.2415.267.4993.5177.7692.7545.0631.0546.1298.1062.1943.1593.2198.1822.4469.3577.684.5214.1398.0959.2876.1829.4351.2714.1785.1091.3581.2183.5454.3156.2401.1217.4908.2316.7456.337.115.0479.2257.1003.3437.1445.3636.1327.7412.2485,1.1346.3459Zm-8.4137-15.6592h22.9807c-.2257-7.9177-3.4552-14.2189-11.4894-14.2189s-11.2638,6.3026-11.4913,14.2189Zm54.1196-16.0221v1.8165c-8.3385,0-15.1216,6.7702-15.1216,15.1083v13.4202c0,1.1188.267,2.2199.777,3.2147l.1504.292h-7.5866c.8109-1.1748,1.2456-2.5694,1.2456-3.9972V14.8384c0-1.3769-.3758-2.728-1.0849-3.9095v-.0015h7.5848c-.7098,1.1815-1.0863,2.5326-1.0863,3.9109v5.5076c2.784-5.5423,8.5081-9.3632,15.1216-9.3632Zm12.0916,31.6813c.0236.0066.0454.014.0697.0192.8784.208,1.8349.323,2.8722.3319,5.6997.0501,10.8854-3.068,13.5341-8.1375l1.6004.8356c-2.9404,5.6278-8.6785,9.0977-15.0003,9.0977v.0236c-6.4723,0-12.1023-3.6558-14.9483-9.0078-.0077-.0133-.0122-.0258-.0192-.0391-.2463-.4646-.4738-.9425-.6752-1.4315-.0288-.0664-.049-.1372-.0756-.205-.1752-.4395-.3385-.8835-.4772-1.3386-.0402-.1283-.0653-.2618-.1021-.3931-.1099-.3997-.2194-.8017-.3002-1.2139-.0383-.1954-.059-.399-.0918-.5974-.0575-.3525-.118-.705-.1534-1.0642-.0247-.2648-.0262-.5339-.0398-.8009-.0147-.2788-.0424-.5531-.0424-.8341,0-.028.0041-.0531.0029-.0796,0-.0295-.0029-.056-.0029-.0841.0015-.118.0177-.2308.0221-.3488h.0041c.274-9.0963,7.7396-16.4137,16.9004-16.4137,9.0277,0,16.4067,7.1109,16.8798,16.0243h.0454v1.8054h-28.4164c.1272,4.4515,1.2043,8.3912,3.5499,10.9879.0026.0044.007.0096.0118.014.2415.267.4993.5177.7692.7545.0631.0546.1298.1062.1943.1593.2198.1822.4469.3577.684.5214.1398.0959.2876.1829.4351.2714.1785.1091.3581.2183.5454.3156.2401.1217.4908.2316.7456.337.115.0479.2257.1003.3437.1445.3636.1327.7412.2485,1.1346.3459Zm-8.4137-15.6592h22.9807c-.2257-7.9177-3.4552-14.2189-11.4894-14.2189s-11.2638,6.3026-11.4913,14.2189Zm38.9084-12.3516v.6962c3.3582-3.1277,7.9712-4.9243,13.0035-4.4884,8.8094.7648,15.435,8.4111,15.435,17.2537v16.5332h-5.4136v-20.0687c0-6.6301-5.3937-12.1878-12.019-11.9688-4.4043.146-8.3304,2.1896-11.0045,5.3314v22.796c0,1.3769.3758,2.7295,1.0863,3.9102h-7.5862c.7109-1.1807,1.0863-2.5318,1.0863-3.9102V14.6533c0-1.3769-.3754-2.7295-1.0863-3.9102h7.5862c-.7106,1.1807-1.0863,2.5326-1.0878,3.9102Zm41.3989-9.7349c0,2.1874-1.7729,3.9626-3.9615,3.9626s-3.9607-1.7752-3.9607-3.9626,1.7729-3.9618,3.9622-3.9618,3.96,1.7729,3.96,3.9618Zm-6.6681,36.006V14.893c0-1.3784-.3758-2.7302-1.086-3.9117h7.5851v.0015c-.7109,1.18-1.0852,2.5318-1.0852,3.9087v26.0328c0,1.3762.3758,2.728,1.0852,3.9087v.0015h-7.5851c.7102-1.1807,1.086-2.534,1.086-3.9102Zm29.9323,2.1055v1.8047c-7.5881,0-15.5663-6.1743-15.5663-13.7624V12.786h-5.0408v-1.8032h5.0408V2.0738h5.4136v8.9089h11.4592v1.8032h-11.4592v18.2862c0,6.5925,3.5595,11.9563,10.1527,11.9577Zm32.9166-31.7565h5.4136c0,19.0532-11.5116,26.9451-20.7616,32.5626-6.3056,3.8291-7.6766,6.8543-7.6766,12.5271h-5.4136c0-6.0475,4.6064-9.423,10.3072-12.9408-6.0489-2.5827-10.3072-8.5726-10.3072-15.5552v-12.6812c0-1.3762-.3758-2.7302-1.0863-3.9109h7.5862c-.7106,1.1807-1.0863,2.5333-1.0863,3.9109v12.6827c0,6.6065,2.0045,12.224,6.9808,14.2772,9.2017-5.6278,16.0424-12.9932,16.0438-30.8723Zm30.0629,58.2828c0,12.36-10.055,22.4169-22.4162,22.4169s-22.4154-10.0569-22.4154-22.4169,10.0554-22.4162,22.4154-22.4162,22.4162,10.0554,22.4162,22.4162Zm-5.5463,0c0-11.3405-5.529-20.568-16.8698-20.568s-16.8706,9.2275-16.8706,20.568,5.5301,20.5673,16.8706,20.5673,16.8698-9.2268,16.8698-20.5673Zm37.3648-11.6196h7.5862c-.7109,1.18-1.0863,2.5322-1.0863,3.9102v13.071c0,9.5498-7.9509,17.2777-17.58,16.9133-9.1604-.3466-16.2732-8.1622-16.2732-17.3293v-12.655c0-1.3765-.3765-2.728-1.0852-3.9087v-.0015h7.5851c-.7109,1.18-1.0863,2.5322-1.0863,3.9102v13.0699c0,8.2876,3.1347,15.0383,11.3596,15.1209,6.4752.0645,11.6635-5.3974,11.6635-11.874v-16.3167c0-1.378-.375-2.7302-1.0834-3.9102Zm30.1551,32.2322v1.8043c-7.5881,0-15.5663-6.1739-15.5663-13.762v-18.2862h-5.0408v-1.8035h5.0408v-8.9086h5.4136v8.9086h11.4592v1.8035h-11.4592v18.2862c0,6.5925,3.5595,11.9563,10.1527,11.9577Zm34.1906-38.05v35.8389c0,1.3765.3765,2.7295,1.0863,3.9102h-7.5862c.7109-1.1807,1.0863-2.5322,1.0863-3.9102v-.6413c-3.0234,2.8154-7.063,4.5529-11.5116,4.5529-9.9743,0-17.9598-8.6693-16.8171-18.8681.8647-7.7348,7.0977-13.977,14.8303-14.8686,5.224-.6029,10.0307,1.2084,13.4984,4.4379v-10.4518c0-1.3765-.3754-2.7302-1.0863-3.9102h7.5862c-.7098,1.18-1.0849,2.5337-1.0863,3.9102Zm-5.4136,13.0441c-2.7756-3.2612-6.9026-5.3398-11.5116-5.3398-8.3385,0-11.5116,6.7827-11.5116,15.1212s3.1731,15.1209,11.5116,15.1209c4.609,0,8.736-2.0779,11.5116-5.3398v-19.5624Zm44.5384,9.8566c0,8.875-7.5918,16.9535-16.9266,16.9535s-16.9266-8.0785-16.9266-16.9535,7.5921-16.9532,16.9266-16.9532,16.9266,8.0785,16.9266,16.9532Zm-5.4147,0c0-7.9281-3.1734-15.2359-11.5119-15.2359s-11.5116,7.3078-11.5116,15.2359,3.1742,15.2381,11.5116,15.2381,11.5119-7.3097,11.5119-15.2381Zm42.6206,0c0,8.875-7.5918,16.9535-16.9266,16.9535s-16.9266-8.0785-16.9266-16.9535,7.5921-16.9532,16.9266-16.9532,16.9266,8.0785,16.9266,16.9532Zm-5.4147,0c0-7.9281-3.1734-15.2359-11.5119-15.2359s-11.5116,7.3078-11.5116,15.2359,3.1742,15.2381,11.5116,15.2381,11.5119-7.3097,11.5119-15.2381Zm31.3295-16.8982v1.8168c-8.3385,0-15.1216,6.7698-15.1216,15.1083v13.4202c0,1.1184.267,2.2199.777,3.2147l.1504.2917h-7.5866c.8109-1.1745,1.2456-2.5691,1.2456-3.9969v-25.9993c0-1.3769-.3758-2.728-1.0849-3.9091v-.0015h7.5848c-.7098,1.1811-1.0863,2.5322-1.0863,3.9106v5.508c2.784-5.5423,8.5081-9.3636,15.1216-9.3636Zm5.8336,9.3183c0,4.009,4.8391,5.779,11.4441,6.7617,8.5678,1.5126,16.9089,3.4083,16.9089,8.4535,0,4.7461-7.4878,9.3183-17.0494,9.3183s-17.049-4.5736-17.049-9.3183h5.744c0,3.6598,3.0411,7.6069,11.3036,7.6069s11.3058-3.9471,11.3058-7.6069c0-3.735-4.0142-5.4505-11.4692-6.7669-8.337-1.2412-16.8842-3.2173-16.8842-8.4484,0-4.7461,7.4893-9.3183,17.049-9.3183s17.0494,4.5721,17.0509,9.3197h-5.7455c0-3.6598-3.0425-7.6084-11.3054-7.6084s-11.3036,3.9471-11.3036,7.6069Zm-229.6027-24.834c4.1631-.3194,8.0515-1.6004,11.9199-2.973,2.2671-.8044,4.3982-.7072,6.5824.1877,2.0866.8549,4.1874,1.6823,6.3146,2.4289,2.7682.9716,5.5635.6812,8.341-.0298,1.2488-.3197,2.4859-.6898,3.743-.9716,2.7126-.6081,5.3903-.6528,8.1305.0959,1.8457.5043,3.8092.6388,5.7316.7765.9974.0714,2.02-.2095,3.1164-.5738-2.1368-1.9747-3.9258-4.3165-6.6369-5.3692-5.505-2.1377-11.1227-3.9054-17.1548-3.5455-3.3476.1997-6.4935,1.0976-9.3973,2.813-2.0305,1.1995-4.1873,1.9114-6.5698,2.2296-2.1312.2846-4.1831,1.1534-6.2747,1.7479-1.5176.4313-3.0429.8356-4.6532,1.0372,2.627-2.403,5.5157-4.3368,8.6151-5.9636,4.4466-2.3339,9.0149-4.4496,14.0896-4.7653,3.3542-.2087,6.7445.12,10.116.2695.6244.0277,1.3401.2031,1.8354.5587,2.2315,1.6018,4.9648,1.865,7.4034,2.8987.519.22,1.1158.2991,1.583.5925,4.4625,2.8026,9.1353,2.2011,13.7631.6988,2.5058-.8134,4.8942-2.0164,7.2792-3.1612,1.0532-.5055,1.7562-1.4105,1.3861-3.0688-.6938-.0051-1.4949-.1963-2.1715.0138-5.0818,1.5776-9.7449.2576-14.2166-2.0606-5.0947-2.6412-10.0344-2.492-14.989.3323-1.9723,1.1243-4.0233,1.6894-6.4324,1.4159-6.037-.6854-11.673,1.06-17.0224,3.6593-3.1779,1.5442-6.1762,3.4583-9.2547,5.2069-.3071.1744-.6105.3551-.9157.5329-.1032-.1168-.2064-.2337-.3097-.3506,2.4773-2.5849,4.9074-5.2179,7.4621-7.7238.7166-.7029,1.7556-1.1522,2.7236-1.5093,2.6433-.9751,5.3401-1.8044,7.992-2.7572,2.3917-.8594,4.4519-2.3145,6.1969-4.111,2.5986-2.6753,5.6708-4.4638,9.1731-5.641,1.2935-.4348,2.5239-1.0688,3.7579-1.6643.693-.3344.6697-.3826,1.0195-1.5-4.3841-.987-8.7613-2.05-13.1732-2.9411-3.4993-.7068-6.4949.6361-9.1713,2.7763-2.9624,2.3688-4.7114,5.6888-6.6075,8.8486-1.2757,2.1261-1.9734,4.6071-3.3037,6.6904-1.3708,2.1468-3.1503,4.0431-4.8361,5.9747-1.1622,1.3317-2.4918,2.5156-3.7063,3.8036-1.8353,1.9464-3.8223,3.5992-6.2757,4.8205" style="fill:#fff;"/></g></svg>